<svg height="35" viewBox="0 0 375 70" xmlns="http://www.w3.org/2000/svg" role="img" aria-labelledby="svg-accesslint-logo-title"><title id="svg-accesslint-logo-title">AccessLint</title><g fill="none" fill-rule="evenodd"><circle fill="#000" cx="35" cy="35" r="35"/><path d="M47.94 44.814l-11.987 4.87c-.185.074-.387-.062-.387-.262v-4.99c0-.115.07-.218.174-.262l9.785-4.012c.152-.062.218-.24.144-.387l-9.75-19.204c-.074-.147-.008-.326.144-.388l3.807-1.562c.137-.056.292.002.358.133l15.177 29.897c.075.146.008.325-.144.387l-3.806 1.562c-.135.056-.29-.002-.357-.132l-2.8-5.517c-.067-.13-.222-.188-.357-.133m-.726 4.75l-1.222-2.41c-.075-.145-.008-.325.145-.386l1.265-.515c.135-.054.29.004.357.134l1.77 3.49c.113.223-.097.47-.334.397l-1.816-.57c-.072-.023-.132-.074-.166-.14M30.07 37.715l4.68-9.22c.103-.205.397-.205.5 0l4.68 9.22c.075.147.01.326-.143.388l-4.68 1.907c-.07.03-.145.03-.213 0l-4.68-1.906c-.152-.062-.22-.24-.145-.388m3.977 5.144l-6.902-2.83c-.244-.1-.23-.45.022-.53l1.867-.585c.063-.02.13-.017.19.008l5.035 2.05c.105.045.175.148.175.262V42.6c0 .2-.204.336-.388.26m0 6.823l-11.987-4.87c-.135-.054-.29.004-.356.134l-2.8 5.517c-.067.13-.222.188-.358.132l-3.807-1.562c-.153-.062-.22-.24-.145-.387L29.772 18.75c.066-.132.22-.19.357-.134l3.806 1.562c.152.062.218.24.144.388L24.33 39.77c-.073.147-.006.326.145.388l9.785 4.012c.105.044.175.147.175.26v4.993c0 .2-.203.335-.388.26m-11.427.02l-1.816.57c-.237.075-.447-.173-.335-.395l1.772-3.49c.066-.13.22-.19.356-.134l1.266.514c.152.062.22.24.145.388l-1.223 2.407c-.035.067-.095.118-.167.14m11.784-23.026l-5.602 11.036c-.035.068-.095.12-.167.14l-1.815.57c-.238.076-.448-.172-.335-.394l7.417-14.615c.134-.263.533-.168.533.128v3.007c0 .044-.01.087-.03.127m8.45 13.353l-6.9 2.83c-.186.076-.39-.06-.39-.26v-1.365c0-.114.07-.217.176-.26l5.036-2.052c.06-.025.128-.027.19-.008l1.867.586c.25.08.266.43.022.53M41.2 37.713l-5.604-11.036c-.02-.04-.03-.083-.03-.127v-3.007c0-.296.398-.39.532-.128l7.418 14.614c.112.22-.098.47-.335.394l-1.815-.57c-.072-.022-.132-.073-.166-.14m-2.945-19.658l-3.148 1.292c-.07.028-.145.028-.214 0l-3.148-1.292c-.232-.095-.232-.425 0-.52l3.148-1.292c.07-.028.145-.028.214 0l3.148 1.292c.232.095.232.425 0 .52m2.437-.743l-5.585-2.292c-.07-.027-.145-.027-.214 0l-5.585 2.293c-.063.025-.114.072-.144.132L13.03 49.228c-.074.147-.007.325.145.388l5.76 2.363c.06.024.128.027.19.007l4.288-1.346c.073-.022.133-.072.167-.14l1.502-2.96c.066-.13.22-.188.357-.132l9.454 3.84c.068.028.144.028.212 0l9.456-3.84c.135-.056.29.002.356.133l1.502 2.96c.035.068.095.118.167.14l4.288 1.347c.062.02.13.017.19-.008l5.76-2.364c.152-.063.22-.24.144-.388L40.835 17.445c-.03-.06-.08-.107-.144-.132" fill="#FFF"/><path d="M98.708 21.768l-6.014 17.05h12.152l-6.014-17.05h-.124zM110.55 55l-3.534-10.106H90.524L86.99 55h-7.688l15.19-41.416h8.804L118.486 55h-7.936zm10.27-15.562c0 10.168 5.766 16.306 14.756 16.306 6.634 0 11.284-3.658 12.338-9.734l-6.758-1.798c-.31 3.41-2.356 5.766-5.58 5.766-4.774 0-7.13-4.154-7.13-10.54 0-6.324 2.356-10.602 7.068-10.602 3.472 0 5.332 2.542 5.58 5.704l6.696-1.426c-.62-6.014-5.27-10.044-12.338-10.044-8.866 0-14.632 6.138-14.632 16.368zm30.482 0c0 10.168 5.766 16.306 14.756 16.306 6.634 0 11.284-3.658 12.338-9.734l-6.758-1.798c-.31 3.41-2.356 5.766-5.58 5.766-4.774 0-7.13-4.154-7.13-10.54 0-6.324 2.356-10.602 7.068-10.602 3.472 0 5.332 2.542 5.58 5.704l6.696-1.426c-.62-6.014-5.27-10.044-12.338-10.044-8.866 0-14.632 6.138-14.632 16.368zm45.238 10.478c3.162 0 5.394-1.426 6.262-4.836l6.324 2.046c-1.674 6.076-6.882 8.618-12.648 8.618-8.99 0-14.694-5.828-14.694-16.12 0-10.168 5.704-16.554 14.756-16.554 8.494 0 12.896 5.952 12.896 13.516 0 1.612-.31 3.286-.62 4.154H189.1c.186 5.766 2.914 9.176 7.44 9.176zm-7.316-13.392h12.896c.062-.496.062-1.116.062-1.55 0-3.472-1.984-6.386-5.766-6.386-4.092 0-6.696 2.976-7.192 7.936zm23.29 10.664c1.116 5.58 6.324 8.556 12.958 8.556 7.378 0 12.772-3.472 12.772-9.858 0-12.524-17.36-6.758-17.36-13.578 0-2.542 1.86-4.03 4.96-4.03 3.348 0 5.146 1.798 5.394 4.464l6.634-.806c-.744-5.704-4.96-8.866-12.09-8.866-6.758 0-12.09 3.596-12.09 9.92 0 12.152 17.298 6.696 17.298 13.578 0 2.604-2.17 3.906-5.456 3.906-3.348 0-5.952-1.984-6.386-4.898l-6.634 1.612zm28.622 0c1.116 5.58 6.324 8.556 12.958 8.556 7.378 0 12.772-3.472 12.772-9.858 0-12.524-17.36-6.758-17.36-13.578 0-2.542 1.86-4.03 4.96-4.03 3.348 0 5.146 1.798 5.394 4.464l6.634-.806c-.744-5.704-4.96-8.866-12.09-8.866-6.758 0-12.09 3.596-12.09 9.92 0 12.152 17.298 6.696 17.298 13.578 0 2.604-2.17 3.906-5.456 3.906-3.348 0-5.952-1.984-6.386-4.898l-6.634 1.612zm31.784-33.604V55h27.342v-6.634h-19.468V13.584h-7.874zm41.766 1.116c0-2.79-2.232-4.588-4.836-4.588s-4.774 1.798-4.774 4.588 2.17 4.588 4.774 4.588 4.836-1.798 4.836-4.588zm-8.618 9.114V55h7.626V23.814h-7.626zm21.864 0h-6.262V55h7.626V37.516c0-5.766 3.038-7.998 6.696-7.998 3.534 0 5.084 2.294 5.084 5.766V55h7.688V33.176c0-6.51-4.03-10.106-9.734-10.106-4.774 0-8.556 2.418-10.168 6.758l-.93-6.014zm45.982 24.056c-1.736 1.116-3.1 1.612-4.96 1.612-2.418 0-3.968-1.24-3.968-4.216V29.518h8.742v-5.704h-8.742v-7.626l-7.688.992v6.634h-4.216v5.704h4.216v16.678c0 6.572 4.03 9.548 10.23 9.548 2.728 0 5.456-.806 7.44-2.232l-1.054-5.642z" fill="#000"/></g></svg>
