<svg width="176px" height="26px" viewBox="0 0 176 26" version="1.1" xmlns="http://www.w3.org/2000/svg" role="img" aria-labelledby="svg-accesslint-logo-title">
  <title id="svg-accesslint-logo-title">AccessLint</title>
  <path d="M15.264,20.296 L14.336,18.056 L6.208,18.056 L5.344,20.296 C5.184,20.776 5.024,21.224 5.024,21.576 C5.024,22.568 5.44,22.888 7.424,22.984 L7.424,25 L0.224,25 L0.224,22.984 C1.088,22.824 1.696,22.664 2.048,21.8 L8.832,4.936 L7.744,2.44 L13.696,2.44 L21.952,21.8 C22.304,22.6 22.88,22.824 23.808,22.984 L23.808,25 L13.216,25 L13.216,22.984 C15.136,22.888 15.616,22.568 15.616,21.576 C15.616,21.224 15.488,20.776 15.264,20.296 Z M10.208,7.88 L7.008,16.008 L13.504,16.008 L10.208,7.88 Z M30.016,14.664 C30.016,11.304 31.68,9.352 33.664,9.352 C35.456,9.352 36,10.696 36,12.552 L36,14.12 L38.816,14.12 C39.584,13.8 40.16,13 40.16,11.72 C40.16,8.776 37.376,7.208 34.08,7.208 C28.64,7.208 25.12,11.4 25.12,16.904 C25.12,22.024 28.416,25.32 32.992,25.32 C36.672,25.32 39.296,23.528 40.384,19.496 L39.392,18.824 C38.272,20.328 36.768,21.224 34.912,21.224 C31.68,21.224 30.016,18.568 30.016,14.664 Z M47.136,14.664 C47.136,11.304 48.8,9.352 50.784,9.352 C52.576,9.352 53.12,10.696 53.12,12.552 L53.12,14.12 L55.936,14.12 C56.704,13.8 57.28,13 57.28,11.72 C57.28,8.776 54.496,7.208 51.2,7.208 C45.76,7.208 42.24,11.4 42.24,16.904 C42.24,22.024 45.536,25.32 50.112,25.32 C53.792,25.32 56.416,23.528 57.504,19.496 L56.512,18.824 C55.392,20.328 53.888,21.224 52.032,21.224 C48.8,21.224 47.136,18.568 47.136,14.664 Z M67.904,7.208 C72.448,7.208 74.816,10.472 74.816,14.504 L74.816,15.688 L64.16,15.688 C64.16,19.048 66.24,21.16 69.216,21.16 C71.328,21.16 72.8,20.328 73.92,18.888 L74.88,19.496 C74.048,22.984 71.488,25.32 67.488,25.32 C62.752,25.32 59.36,21.992 59.36,16.84 C59.36,11.016 63.168,7.208 67.904,7.208 Z M67.36,9.288 C65.408,9.288 64.448,11.4 64.224,13.864 L70.112,13.864 C70.08,11.144 69.216,9.288 67.36,9.288 Z M83.936,25.32 C88.32,25.32 90.912,23.112 90.912,19.336 C90.912,15.784 88.416,14.344 84.96,13.608 C82.08,13.032 81.408,12.392 81.408,11.144 C81.408,10.024 82.24,9.192 83.776,9.192 C85.792,9.192 86.848,10.344 87.328,12.296 L89.696,12.296 L89.696,8.68 C88.288,7.784 86.24,7.208 84,7.208 C79.904,7.208 77.312,9.32 77.312,13 C77.312,16.232 79.264,17.832 83.136,18.76 C86.016,19.432 86.912,19.944 86.912,21.352 C86.912,22.664 85.76,23.336 84.096,23.336 C81.632,23.336 80.288,22.056 79.712,19.56 L77.28,19.56 L77.472,23.528 C78.976,24.584 81.216,25.32 83.936,25.32 Z M100.032,25.32 C104.416,25.32 107.008,23.112 107.008,19.336 C107.008,15.784 104.512,14.344 101.056,13.608 C98.176,13.032 97.504,12.392 97.504,11.144 C97.504,10.024 98.336,9.192 99.872,9.192 C101.888,9.192 102.944,10.344 103.424,12.296 L105.792,12.296 L105.792,8.68 C104.384,7.784 102.336,7.208 100.096,7.208 C96,7.208 93.408,9.32 93.408,13 C93.408,16.232 95.36,17.832 99.232,18.76 C102.112,19.432 103.008,19.944 103.008,21.352 C103.008,22.664 101.856,23.336 100.192,23.336 C97.728,23.336 96.384,22.056 95.808,19.56 L93.376,19.56 L93.568,23.528 C95.072,24.584 97.312,25.32 100.032,25.32 Z M117.6,6.76 C117.6,5.032 118.112,4.68 120.192,4.584 L120.192,2.536 L109.184,2.536 L109.184,4.584 C111.328,4.68 111.84,5.032 111.84,6.76 L111.84,20.776 C111.84,22.536 111.328,22.888 109.184,22.984 L109.184,25 L127.456,25 L128.64,17.576 L126.336,17.576 C123.872,21.896 123.328,22.856 121.152,22.856 L120.16,22.856 C118.304,22.856 117.6,22.44 117.6,20.712 L117.6,6.76 Z M137.568,7.176 L136.544,7.176 L130.272,8.808 L130.272,9.736 L132.16,11.496 L132.16,21.224 C132.16,22.696 131.52,22.856 130.112,23.048 L130.112,25 L139.616,25 L139.616,23.048 C138.176,22.856 137.568,22.696 137.568,21.224 L137.568,7.176 Z M134.784,5.896 C136.64,5.896 137.792,4.584 137.792,3.048 C137.792,1.512 136.64,0.2 134.784,0.2 C132.896,0.2 131.712,1.512 131.712,3.048 C131.712,4.584 132.896,5.896 134.784,5.896 Z M154.528,21.224 C154.528,22.696 154.08,22.856 152.64,23.048 L152.64,25 L161.984,25 L161.984,23.048 C160.544,22.856 159.936,22.696 159.936,21.224 L159.936,12.456 C159.936,8.872 158.208,7.208 155.136,7.208 C152.384,7.208 150.336,9 148.992,10.536 L148.992,7.08 L147.968,7.08 L141.696,8.808 L141.696,9.864 L143.584,11.592 L143.584,21.224 C143.584,22.696 142.944,22.856 141.536,23.048 L141.536,25 L150.912,25 L150.912,23.048 C149.472,22.856 148.992,22.696 148.992,21.224 L148.992,11.496 C149.92,11.08 151.072,10.728 152.384,10.728 C153.984,10.728 154.528,11.464 154.528,12.968 L154.528,21.224 Z M170.56,3.56 L168.896,3.56 C167.264,5.576 165.024,7.432 162.944,8.2 L162.944,9.8 L165.12,9.8 L165.12,20.488 C165.12,23.816 166.816,25.32 170.016,25.32 C172.32,25.32 174.24,24.488 175.712,22.984 L175.136,21.512 C174.368,21.928 173.472,22.152 172.672,22.152 C171.2,22.152 170.56,21.48 170.56,19.912 L170.56,9.8 L174.944,9.8 L174.944,7.528 L170.56,7.528 L170.56,3.56 Z" fill="#000000"></path>
</svg>
